<svg xmlns="http://www.w3.org/2000/svg" xmlns:xlink="http://www.w3.org/1999/xlink" width="165.194" height="154.21" viewBox="0 0 165.194 154.21">
  <defs>
    <linearGradient id="linear-gradient" x1="87.099" y1="-333.52" x2="87.099" y2="-332.434" gradientUnits="objectBoundingBox">
      <stop offset="0" stop-color="gray" stop-opacity="0.251"/>
      <stop offset="0.54" stop-color="gray" stop-opacity="0.122"/>
      <stop offset="1" stop-color="gray" stop-opacity="0.102"/>
    </linearGradient>
    <linearGradient id="linear-gradient-2" x1="0.819" y1="0.104" x2="0.819" y2="1.104" xlink:href="#linear-gradient"/>
  </defs>
  <g id="Group_146" data-name="Group 146" transform="translate(-24.632 -20.936)">
    <ellipse id="Ellipse_50" data-name="Ellipse 50" cx="64.962" cy="8.783" rx="64.962" ry="8.783" transform="translate(37.764 157.581)" fill="#6c63ff" opacity="0.1"/>
    <path id="Path_721" data-name="Path 721" d="M643.292,289.8h.919a.483.483,0,0,1,.491.491v14.616a.483.483,0,0,1-.491.491h-.919a.484.484,0,0,1-.491-.491V290.291A.484.484,0,0,1,643.292,289.8Z" transform="translate(-506.033 -228.402)" fill="#3a3768"/>
    <path id="Path_722" data-name="Path 722" d="M348.892,232.6h.085a.484.484,0,0,1,.491.491v4.167a.484.484,0,0,1-.491.491h-.085a.484.484,0,0,1-.491-.491v-4.167A.484.484,0,0,1,348.892,232.6Z" transform="translate(-274.543 -183.425)" fill="#3a3768"/>
    <path id="Path_723" data-name="Path 723" d="M348.692,276.6h.214a.484.484,0,0,1,.492.491v7.971a.484.484,0,0,1-.492.491h-.214a.484.484,0,0,1-.492-.491v-7.971A.5.5,0,0,1,348.692,276.6Z" transform="translate(-274.386 -218.022)" fill="#3a3768"/>
    <path id="Path_724" data-name="Path 724" d="M348.792,333.1h.15a.484.484,0,0,1,.491.491v8.035a.484.484,0,0,1-.491.491h-.15a.484.484,0,0,1-.491-.491v-8.035A.483.483,0,0,1,348.792,333.1Z" transform="translate(-274.465 -262.449)" fill="#3a3768"/>
    <path id="Path_725" data-name="Path 725" d="M359.534,153.2H406.2a8.345,8.345,0,0,1,8.334,8.334V273.593a8.345,8.345,0,0,1-8.334,8.334h-46.67a8.345,8.345,0,0,1-8.334-8.334V161.534A8.317,8.317,0,0,1,359.534,153.2Z" transform="translate(-276.745 -120.992)" fill="#2a2a2a"/>
    <path id="Path_726" data-name="Path 726" d="M420,168.8H412.73v.876a4.149,4.149,0,0,1-4.146,4.146h-23.1a4.15,4.15,0,0,1-4.146-4.146h0V168.8h-6.817a5.016,5.016,0,0,0-5.022,5.022h0V285.8a5.016,5.016,0,0,0,5.022,5.022h45.452A5.016,5.016,0,0,0,425,285.8V173.843a5,5,0,0,0-5-5.043Z" transform="translate(-291.134 -133.258)" fill="#f9f9f9"/>
    <path id="Path_727" data-name="Path 727" d="M471.633,171.2h7.18a.834.834,0,0,1,.833.833v.15a.834.834,0,0,1-.833.833h-7.18a.834.834,0,0,1-.833-.833v-.171A.817.817,0,0,1,471.633,171.2Z" transform="translate(-370.788 -135.145)" fill="#e6e8ec"/>
    <circle id="Ellipse_51" data-name="Ellipse 51" cx="1.026" cy="1.026" r="1.026" transform="translate(110.184 35.927)" fill="#e6e8ec"/>
    <path id="Path_728" data-name="Path 728" d="M691.141,126.713s-17.993-1.09-15.877,11.518a3.079,3.079,0,0,0,1.6,3.248s.043-.94,1.838-.62a8.612,8.612,0,0,0,1.966.085,4.179,4.179,0,0,0,2.393-.983h0s5.064-2.094,7.031-10.364c0,0,1.453-1.8,1.389-2.265l-3.034,1.3a5.392,5.392,0,0,1,.214,4.017s-.107-3.932-.684-3.846c-.107.021-1.581.769-1.581.769s1.774,3.825.427,6.582c0,0,.513-4.7-1-6.3l-2.137,1.239s2.094,3.932.662,7.159c0,0,.363-4.936-1.133-6.859l-1.944,1.517s1.966,3.889.769,6.539c0,0-.15-5.748-1.175-6.176a11.66,11.66,0,0,0-1.945,2.116s1.346,2.821.513,4.317c0,0-.513-3.825-.919-3.846a12.719,12.719,0,0,0-1.859,4.274,9.091,9.091,0,0,1,1.453-4.509,5.069,5.069,0,0,0-2.586,1.346s.256-1.8,2.992-1.945c0,0,1.389-1.923,1.774-2.03a10.9,10.9,0,0,0-4.381.513s1.453-1.688,4.872-.919l1.923-1.56s-3.59-.492-5.107.043c0,0,1.752-1.5,5.62-.406l2.073-1.239a18.853,18.853,0,0,0-4.872-.427s1.923-1.047,5.492.085l1.5-.662s-2.244-.449-2.885-.513-.684-.3-.684-.3a7.872,7.872,0,0,1,4.21.47A18.982,18.982,0,0,0,691.141,126.713Z" transform="translate(-531.423 -100.146)" fill="#3ed3cd"/>
    <path id="Path_729" data-name="Path 729" d="M637.1,100.461s-8.12-.491-7.18,5.214a1.368,1.368,0,0,0,.727,1.453s.021-.427.833-.278a4.083,4.083,0,0,0,.876.043,1.782,1.782,0,0,0,1.068-.449h0s2.286-.94,3.184-4.68c0,0,.662-.812.641-1.026l-1.368.577a2.477,2.477,0,0,1,.107,1.816s-.043-1.774-.3-1.731a7.32,7.32,0,0,0-.705.342,4,4,0,0,1,.192,2.97s.235-2.116-.449-2.863l-.962.577a4.241,4.241,0,0,1,.3,3.227s.171-2.222-.513-3.1l-.876.684a4.226,4.226,0,0,1,.342,2.97s-.064-2.586-.534-2.8a5.109,5.109,0,0,0-.876.962s.6,1.282.235,1.945c0,0-.235-1.731-.427-1.731a5.575,5.575,0,0,0-.833,1.923,4.019,4.019,0,0,1,.663-2.03,2.379,2.379,0,0,0-1.175.6s.128-.812,1.346-.876a5.7,5.7,0,0,1,.791-.919,4.9,4.9,0,0,0-1.987.235,2.195,2.195,0,0,1,2.2-.406l.855-.705a7.425,7.425,0,0,0-2.308.021,2.794,2.794,0,0,1,2.543-.192l.94-.556a8.548,8.548,0,0,0-2.2-.192,3.365,3.365,0,0,1,2.479.043l.684-.3s-1-.192-1.3-.235-.321-.107-.321-.107a3.406,3.406,0,0,1,1.9.214A8.394,8.394,0,0,0,637.1,100.461Z" transform="translate(-495.847 -79.514)" fill="#3ed3cd"/>
    <ellipse id="Ellipse_52" data-name="Ellipse 52" cx="5.748" cy="0.962" rx="5.748" ry="0.962" transform="translate(178.33 163.756)" fill="#6c63ff" opacity="0.1"/>
    <path id="Path_730" data-name="Path 730" d="M184.846,723.3s1.175,1.539-.534,3.846-3.12,4.274-2.564,5.727c0,0,2.586-4.317,4.7-4.359S187.154,725.886,184.846,723.3Z" transform="translate(-143.406 -569.267)" fill="#25b6c7"/>
    <path id="Path_731" data-name="Path 731" d="M185.063,723.3a1.487,1.487,0,0,1,.235.492c2.051,2.415,3.163,4.659,1.175,4.723-1.838.064-4.039,3.355-4.573,4.167l.064.192s2.586-4.317,4.7-4.359S187.371,725.886,185.063,723.3Z" transform="translate(-143.623 -569.267)" opacity="0.1"/>
    <path id="Path_732" data-name="Path 732" d="M205.956,731.122a2.118,2.118,0,0,1-.128.983,2.047,2.047,0,0,1-.128-.983c0-.556.085-.278.15-.278S205.956,730.588,205.956,731.122Z" transform="translate(-162.337 -575.144)" fill="#ffd037"/>
    <path id="Path_733" data-name="Path 733" d="M207.015,734.045c-.47.256-.9.406-.919.342s.321-.32.791-.6.3-.064.321,0S207.486,733.767,207.015,734.045Z" transform="translate(-162.648 -577.405)" fill="#ffd037"/>
    <path id="Path_734" data-name="Path 734" d="M157.881,723.3s-1.175,1.539.534,3.846,3.12,4.274,2.564,5.727c0,0-2.586-4.317-4.7-4.359S155.573,725.886,157.881,723.3Z" transform="translate(-122.66 -569.267)" fill="#25b6c7"/>
    <path id="Path_735" data-name="Path 735" d="M157.881,723.3a1.488,1.488,0,0,0-.235.492c-2.051,2.415-3.141,4.659-1.175,4.723,1.838.064,4.06,3.355,4.573,4.167l-.064.192s-2.586-4.317-4.7-4.359S155.573,725.886,157.881,723.3Z" transform="translate(-122.66 -569.267)" opacity="0.1"/>
    <path id="Path_736" data-name="Path 736" d="M157.4,731.122a2.118,2.118,0,0,0,.128.983,2.046,2.046,0,0,0,.128-.983c0-.556-.085-.278-.15-.278S157.4,730.588,157.4,731.122Z" transform="translate(-124.358 -575.144)" fill="#ffd037"/>
    <path id="Path_737" data-name="Path 737" d="M152.837,734.045c.47.256.876.406.919.342s-.321-.32-.791-.6-.278-.064-.321,0S152.367,733.767,152.837,734.045Z" transform="translate(-120.543 -577.405)" fill="#ffd037"/>
    <path id="Path_738" data-name="Path 738" d="M159.2,760.549s3.291-.107,4.274-.812,5.043-1.538,5.3-.427,4.936,5.62,1.239,5.641-8.612-.577-9.595-1.175S159.2,760.549,159.2,760.549Z" transform="translate(-125.774 -597.156)" fill="#a8a8a8"/>
    <path id="Path_739" data-name="Path 739" d="M170.055,771.139c-3.7.021-8.612-.577-9.595-1.175-.748-.47-1.047-2.094-1.154-2.863H159.2s.214,2.65,1.2,3.248,5.9,1.218,9.595,1.175c1.068,0,1.432-.385,1.41-.961C171.252,770.925,170.846,771.139,170.055,771.139Z" transform="translate(-125.774 -603.707)" opacity="0.2"/>
    <path id="Path_740" data-name="Path 740" d="M282.2,444.7a.192.192,0,0,0,.235.021A.961.961,0,0,1,282.2,444.7Z" transform="translate(-222.49 -350.201)" fill="url(#linear-gradient)"/>
    <path id="Path_741" data-name="Path 741" d="M178.746,198.766c-.449-.128-1.09-.342-1.859-.62a9.883,9.883,0,0,0,1.731-3.526l-.064.021c.021-.085.043-.15.064-.235-1.474.62-3.12-.427-4.167-1.752s-1.752-2.97-2.906-4.21a11.572,11.572,0,0,0-1.539-1.346,2.2,2.2,0,0,0-1.111-.556c-.662-.021-1.2.641-1.838.833a2.373,2.373,0,0,1-1.282-.043,46.593,46.593,0,0,0-4.936-1.282,6.1,6.1,0,0,0-2.692.3c-.855.321-1.239.983-1.923,1.5-.748.556-2.222.556-3.1.641a19.944,19.944,0,0,1-3.184.128,6.6,6.6,0,0,0-1.838.064,7.158,7.158,0,0,0-3.248,2.286,1.718,1.718,0,0,0-.534.855.61.61,0,0,0,0,.278,2.2,2.2,0,0,0,.128.748,10.038,10.038,0,0,0,1.218,2.5,7.692,7.692,0,0,1,1.068,1.752,3.226,3.226,0,0,1,.171,1.026,9.413,9.413,0,0,1-.107,1.09,13.7,13.7,0,0,1-.833,2.906,6.166,6.166,0,0,0-.491,1.539v.321c-.064,1.667,1.6,2.885,1.923,4.552a2.626,2.626,0,0,1,.043.427,2.858,2.858,0,0,1-1.474,2.457c.085.021.15.064.235.085a2.332,2.332,0,0,1-.235.128,3.984,3.984,0,0,0,.47.15A10.814,10.814,0,0,0,144,214.814c-2.885,5.449-22.48,16.155-22.48,16.155s.107.064.3.171a2.25,2.25,0,0,1-.235.15c-1.688,1.154-5.684,4.488-2.073,8.7a45.23,45.23,0,0,1,4.787-6.411,2.561,2.561,0,0,1,.256-.235.7.7,0,0,1,.085.47l12.886-7.351s4.573-3.248,5.855-4a10.166,10.166,0,0,1,2.906-1.261l-.15.064a5.854,5.854,0,0,1,1.474-.214c2.286.043,4.744,1.731,5.577,8.441,1.09,9,.577,10.6.235,10.834-.043,0-.085-.021-.128-.021a.074.074,0,0,0,.043.021c-.043,0-.085-.021-.15-.021a.2.2,0,0,0,.192.043.188.188,0,0,0,.15-.021h.171c0,.085-.021.171-.021.256-.021,0-.107.043,0,.064h0c-.021.513-.021,1.068,0,1.624-1.133.064-2.265.128-3.269.192l.085-.47.043-.214c.876-.064,1.688-.321,1.8-1.047.214-1.581-1.923-2.415-3.74-2.522s-12.672.641-12.672.641-1.624,2.137,3.547,2.8c.15.085.321.171.47.256a60.775,60.775,0,0,1,6.09,4.381l.192.15-.6.47c3.205.727,6.282,13.121,7.992,18.783s5.428,5.449,8.526,4.616c2.885-.791,3.269-9.317,3.291-10.385v-.107l5.15,6.432.385.491a4.277,4.277,0,0,0,.449.214,4.983,4.983,0,0,0,6.988-5.834c-1.239-4.146-3.163-10.278-4.445-12.864-1.068-2.158-2.457-5.77-3.312-8.035.107-.043.214-.107.321-.15,0,0-.021-.107-.064-.278l.064-.021a80.3,80.3,0,0,1-1.3-11.155v-.385c.94-.214,1.517-.3,1.517-.3l.021-.192-.107.021.513-6s1.9-4.1.449-5.812a3.452,3.452,0,0,1-.855-1.774c-.235-1.581,0-4.188,3.4-6.368,5.214-3.355,7.244-6.09,7.244-6.09S181.93,199.706,178.746,198.766Zm-10.385,4.167v-2.778c.962-.043,1.966.064,2.928,0a7.776,7.776,0,0,0,1.41-.235l.235.171A25.168,25.168,0,0,1,168.361,202.933Zm-14.787,43.55,1.154.833c.235,1.368.449,2.329.449,2.393A18.9,18.9,0,0,0,153.573,246.483Z" transform="translate(-93.414 -146.791)" fill="url(#linear-gradient-2)"/>
    <path id="Path_742" data-name="Path 742" d="M278.5,460.8l-.235,1.261-.171.962-.32,1.752-3.12,2.2s-.278-.235-.748-.62A54.93,54.93,0,0,0,267.945,462a6.726,6.726,0,0,0-1.646-.748Z" transform="translate(-209.987 -362.86)" fill="#ffbdc6"/>
    <path id="Path_743" data-name="Path 743" d="M278.423,460.8l-.235,1.261a9.635,9.635,0,0,1-2.073-.107l-7.308.107c-.342-.021-.662-.043-.962-.086a6.724,6.724,0,0,0-1.645-.748Z" transform="translate(-209.909 -362.86)" opacity="0.1"/>
    <path id="Path_744" data-name="Path 744" d="M266.92,452.5s3.654.62,3.868-.94-1.88-2.393-3.654-2.5-12.415.62-12.415.62-1.88,2.5,4.894,2.928Z" transform="translate(-200.692 -353.621)" fill="#474463"/>
    <path id="Path_745" data-name="Path 745" d="M278.5,460.8l-.235,1.261-.171.962-.32,1.752-3.12,2.2s-.278-.235-.748-.62A54.93,54.93,0,0,0,267.945,462a6.726,6.726,0,0,0-1.646-.748Z" transform="translate(-209.987 -362.86)" opacity="0.1"/>
    <path id="Path_746" data-name="Path 746" d="M278.423,460.8l-.235,1.261a9.635,9.635,0,0,1-2.073-.107l-7.308.107c-.342-.021-.662-.043-.962-.086a6.724,6.724,0,0,0-1.645-.748Z" transform="translate(-209.909 -362.86)" opacity="0.1"/>
    <path id="Path_747" data-name="Path 747" d="M266.92,452.5s3.654.62,3.868-.94-1.88-2.393-3.654-2.5-12.415.62-12.415.62-1.88,2.5,4.894,2.928Z" transform="translate(-200.692 -353.621)" opacity="0.1"/>
    <rect id="Rectangle_1528" data-name="Rectangle 1528" width="19.083" height="22.63" transform="translate(55.116 47.466)" fill="#474463"/>
    <rect id="Rectangle_1529" data-name="Rectangle 1529" width="19.083" height="22.63" transform="translate(55.116 47.573)" opacity="0.1"/>
    <path id="Path_748" data-name="Path 748" d="M129.379,398.98a2.885,2.885,0,0,0-1.154.833,46.086,46.086,0,0,0-4.68,6.368c-3.526-4.188.385-7.5,2.03-8.654.406-.278.684-.427.684-.427Z" transform="translate(-96.615 -312.773)" fill="#ffbdc6"/>
    <path id="Path_749" data-name="Path 749" d="M285.308,258s.94,6.56,4.167,8.142-4.167,4.487-4.167,4.487L275.2,266.868s5.727-1.88,4.594-7.394Z" transform="translate(-216.986 -203.397)" fill="#ffbdc6"/>
    <path id="Path_750" data-name="Path 750" d="M226.723,443l-.235,1.239-.192.962-.321,1.752-3.12,2.18s-.278-.235-.748-.62a54.936,54.936,0,0,0-5.962-4.359,6.727,6.727,0,0,0-1.645-.748Z" transform="translate(-169.257 -348.864)" fill="#ffbdc6"/>
    <path id="Path_751" data-name="Path 751" d="M226.723,443l-.235,1.239a9.642,9.642,0,0,1-2.073-.107l-7.308.107c-.342-.021-.662-.043-.962-.085a6.727,6.727,0,0,0-1.645-.748Z" transform="translate(-169.257 -348.864)" opacity="0.1"/>
    <path id="Path_752" data-name="Path 752" d="M215.141,434.7s3.654.62,3.846-.94-1.88-2.393-3.654-2.5-12.415.62-12.415.62-1.88,2.5,4.894,2.928Z" transform="translate(-159.961 -339.625)" fill="#474463"/>
    <path id="Path_753" data-name="Path 753" d="M254.388,452.986l-.321,1.752-3.12,2.18s-.278-.235-.748-.62l4.146-3.4Z" transform="translate(-197.328 -356.649)" opacity="0.1"/>
    <path id="Path_754" data-name="Path 754" d="M273.637,459.792c-.15-.064-.278-.15-.427-.214l-.385-.492-5.043-6.389v.107c-.043,1.068-.406,9.531-3.227,10.321-3.013.833-6.667,1.047-8.334-4.594s-4.7-17.929-7.821-18.677l4.637-3.8a27.437,27.437,0,0,1,4.317,7.03c-.043-.214-2.158-10.129-.427-11.881h15.236s2.351,6.688,3.953,10.022A112.492,112.492,0,0,1,280.475,454,4.9,4.9,0,0,1,273.637,459.792Z" transform="translate(-195.912 -339.586)" fill="#2a2a2a"/>
    <path id="Path_755" data-name="Path 755" d="M301.889,386.317c-2.351,1.389-12.672.833-16.027.6l-.919-.064c-.107,0,.021-.064.021-.064l.085-.94,2.5-6.368,13.4-7.778a11.433,11.433,0,0,0-.342,3.5A85.093,85.093,0,0,0,301.889,386.317Z" transform="translate(-224.614 -292.8)" opacity="0.1"/>
    <path id="Path_756" data-name="Path 756" d="M301.5,384.816c-2.351,1.389-12.672.833-16.027.6l-.919-.064-.15-.021.171-.043.833-.214,1.774-7.095,13.4-7.778a11.434,11.434,0,0,0-.342,3.5A82.718,82.718,0,0,0,301.5,384.816Z" transform="translate(-224.22 -291.621)" fill="#f2f1f2"/>
    <path id="Path_757" data-name="Path 757" d="M300.685,373.726c-2.735.62-8.719,2.479-11.026,6.924-1.539,2.97-2.821,4.231-3.74,4.765l-.919-.064c0-.021.021-.043.021-.064l.833-.214,1.774-7.095,13.4-7.778A12.4,12.4,0,0,0,300.685,373.726Z" transform="translate(-224.691 -291.621)" opacity="0.1"/>
    <path id="Path_758" data-name="Path 758" d="M138.884,397.1l3.12,1.88a2.884,2.884,0,0,0-1.154.833c-.256-.769-1.9-1.816-2.65-2.265C138.627,397.25,138.884,397.1,138.884,397.1Z" transform="translate(-109.261 -312.773)" opacity="0.1"/>
    <path id="Path_759" data-name="Path 759" d="M281.714,441.621a.2.2,0,0,1-.214-.021C281.564,441.6,281.65,441.621,281.714,441.621Z" transform="translate(-221.939 -347.763)" opacity="0.1"/>
    <path id="Path_760" data-name="Path 760" d="M175.873,235.463a6.187,6.187,0,0,1-4.808-1.774s-8.334,2.393-11.155,7.821-22.01,16.048-22.01,16.048,3.334,1.88,3.013,2.821l12.608-7.308s4.488-3.227,5.727-3.953,8.142-5.214,9.595,6.988,0,10.749,0,10.749,2.094.727,5.107-5.107,12.415-7.2,12.415-7.2l.513-6.154s1.859-4.082.427-5.77a3.6,3.6,0,0,1-.833-1.774c-.235-1.56,0-4.167,3.312-6.325,5.107-3.334,7.095-6.047,7.095-6.047s.107-1.987-3.013-2.928S178.01,219.5,178.01,219.5l-.427,1.774,10.043,7.095s-5,4.06-8.975,3.953C178.694,232.321,179.42,235.356,175.873,235.463Z" transform="translate(-109.025 -173.124)" fill="#e5b826"/>
    <path id="Path_761" data-name="Path 761" d="M301.74,262.043a17.487,17.487,0,0,1-.577-2.543l-5.535,1.453a6.192,6.192,0,0,1-.128,3.184,5.935,5.935,0,0,0,6.24-2.094Z" transform="translate(-232.948 -204.576)" opacity="0.1"/>
    <circle id="Ellipse_53" data-name="Ellipse 53" cx="5.941" cy="5.941" r="5.941" transform="translate(58.257 47.573)" fill="#ffbdc6"/>
    <path id="Path_762" data-name="Path 762" d="M258.652,189.505a43.526,43.526,0,0,1,4.829,1.282,2.3,2.3,0,0,0,1.261.043c.641-.192,1.154-.855,1.795-.833a1.852,1.852,0,0,1,1.09.556,14.72,14.72,0,0,1,1.5,1.325c1.111,1.218,1.816,2.863,2.842,4.167s2.628,2.351,4.082,1.752c-.983,3.846-4.231,6.774-7.714,7.009-1.389.085-2.821-.192-4.167.214a4.416,4.416,0,0,1-1.047.256c-.769,0-1.41-.705-1.88-1.41-1.133-1.624-2.03-3.483-3.312-4.979a2.7,2.7,0,0,0-1.517-1.047,2.856,2.856,0,0,0-1.688.47,7.722,7.722,0,0,0-2.457,1.71,3.417,3.417,0,0,0-.833,2.992,8.293,8.293,0,0,1,.513,1.667c.021.94-.833,1.645-.983,2.564a10.6,10.6,0,0,0-.043,1.175,4.7,4.7,0,0,1-1.774,3.1,2.323,2.323,0,0,0-.812,1.111c-.064.321,0,.662-.043,1a1.828,1.828,0,0,1-1.667,1.346,4.748,4.748,0,0,1-2.5-.3,2.907,2.907,0,0,0,1.41-3.056c-.321-1.688-2.03-2.906-1.88-4.637a5.226,5.226,0,0,1,.47-1.517,15.258,15.258,0,0,0,.812-2.885,4.946,4.946,0,0,0-.043-2.308,6.929,6.929,0,0,0-1.047-1.752,10.059,10.059,0,0,1-1.2-2.457,1.508,1.508,0,0,1-.107-.812,1.582,1.582,0,0,1,.534-.855,6.882,6.882,0,0,1,3.163-2.265,6.327,6.327,0,0,1,1.8-.064,18.965,18.965,0,0,0,3.12-.128c.855-.107,2.308-.085,3.013-.641.684-.513,1.047-1.175,1.88-1.5A5.123,5.123,0,0,1,258.652,189.505Z" transform="translate(-191.292 -149.497)" opacity="0.1"/>
    <path id="Path_763" data-name="Path 763" d="M333.4,476.9s3.44,6.774,2.393,8.868" transform="translate(-262.749 -375.52)" opacity="0.1"/>
    <path id="Path_764" data-name="Path 764" d="M343.881,533.012l-5.043-6.389v.107s-.3-2.073.662-1.368c2.094,1.517,5.47,4.017,5.535,4.445A12.07,12.07,0,0,1,343.881,533.012Z" transform="translate(-266.99 -413.511)" opacity="0.1"/>
    <g id="Group_145" data-name="Group 145" transform="translate(29.003 46.376)" opacity="0.1">
      <path id="Path_765" data-name="Path 765" d="M325.84,279.185a2.575,2.575,0,0,1-.94,2.65,2.359,2.359,0,0,0,2.137-2.735A7.52,7.52,0,0,1,325.84,279.185Z" transform="translate(-285.068 -266.364)"/>
      <path id="Path_766" data-name="Path 766" d="M139.654,309.892s19.189-10.642,22.01-16.048c2.03-3.889,6.881-6.218,9.466-7.244-1.88.641-8.227,3.056-10.62,7.65-2.821,5.428-22.01,16.048-22.01,16.048Z" transform="translate(-138.5 -272.261)"/>
      <path id="Path_767" data-name="Path 767" d="M329.187,231.488a22.9,22.9,0,0,0,6.389-3.547l-10.022-7.095.235-.962-.962-.385-.427,1.774,10.022,7.094A24.572,24.572,0,0,1,329.187,231.488Z" transform="translate(-284.675 -219.5)"/>
      <path id="Path_768" data-name="Path 768" d="M347,383.775a24.617,24.617,0,0,1,3.932-.983l.021-.192A23.32,23.32,0,0,0,347,383.775Z" transform="translate(-302.445 -347.747)"/>
      <path id="Path_769" data-name="Path 769" d="M259.241,368.7h-.085a.2.2,0,0,1-.214-.021.727.727,0,0,0,.214.021c.342-.192.855-1.752-.214-10.77-1.154-9.616-5.663-8.868-8.142-7.757,2.522-.705,6-.085,7.009,8.184,1.068,9.018.556,10.578.214,10.77A2.4,2.4,0,0,0,259.241,368.7Z" transform="translate(-226.803 -321.754)"/>
      <path id="Path_770" data-name="Path 770" d="M283.714,441.121a.727.727,0,0,1-.214-.021A.235.235,0,0,0,283.714,441.121Z" transform="translate(-252.515 -393.746)"/>
    </g>
    <path id="Path_771" data-name="Path 771" d="M258.652,188.541a43.523,43.523,0,0,1,4.829,1.282,2.3,2.3,0,0,0,1.261.043c.641-.192,1.154-.855,1.795-.833a1.983,1.983,0,0,1,1.09.556,14.72,14.72,0,0,1,1.5,1.325c1.111,1.218,1.816,2.863,2.842,4.167s2.628,2.351,4.082,1.752c-.983,3.846-4.231,6.774-7.714,7.009-1.389.107-2.821-.192-4.167.214a4.412,4.412,0,0,1-1.047.256c-.769,0-1.41-.705-1.88-1.41-1.133-1.624-2.03-3.483-3.312-4.979a2.7,2.7,0,0,0-1.517-1.047,2.856,2.856,0,0,0-1.688.47,7.722,7.722,0,0,0-2.457,1.71,3.417,3.417,0,0,0-.833,2.992,8.293,8.293,0,0,1,.513,1.667c.021.94-.833,1.645-.983,2.564a10.6,10.6,0,0,0-.043,1.175,4.7,4.7,0,0,1-1.774,3.1,2.227,2.227,0,0,0-.812,1.111c-.064.321,0,.662-.043,1a1.828,1.828,0,0,1-1.667,1.346,4.749,4.749,0,0,1-2.5-.3,2.891,2.891,0,0,0,1.41-3.056c-.321-1.688-2.03-2.906-1.88-4.637a5.226,5.226,0,0,1,.47-1.517,15.259,15.259,0,0,0,.812-2.885,4.946,4.946,0,0,0-.043-2.308,6.928,6.928,0,0,0-1.047-1.752,9.7,9.7,0,0,1-1.2-2.457,1.508,1.508,0,0,1-.107-.812,1.658,1.658,0,0,1,.534-.833,6.882,6.882,0,0,1,3.163-2.265,6.327,6.327,0,0,1,1.8-.064,21.647,21.647,0,0,0,3.12-.128c.855-.107,2.308-.085,3.013-.641.684-.513,1.047-1.175,1.88-1.5A5.13,5.13,0,0,1,258.652,188.541Z" transform="translate(-191.292 -148.747)" fill="#2a2a2a"/>
    <circle id="Ellipse_54" data-name="Ellipse 54" cx="11.988" cy="11.988" r="11.988" transform="translate(94.52 86.165)" fill="#fff"/>
    <path id="Path_772" data-name="Path 772" d="M457.032,395.505A16.016,16.016,0,1,1,441.005,379.5a16.01,16.01,0,0,1,16.027,16.005Zm-17.865,8.462,11.881-11.881a1.019,1.019,0,0,0,0-1.453h0L449.6,389.18a1.019,1.019,0,0,0-1.453,0h0l-9.68,9.68-4.53-4.53a1.019,1.019,0,0,0-1.453,0l-1.453,1.474a1.019,1.019,0,0,0,0,1.453l6.71,6.71a.959.959,0,0,0,1.432,0Z" transform="translate(-334.775 -298.934)" fill="#3acc6c"/>
  </g>
</svg>
