<svg xmlns="http://www.w3.org/2000/svg" xmlns:xlink="http://www.w3.org/1999/xlink" width="224.608" height="101" viewBox="0 0 224.608 101">
  <defs>
    <linearGradient id="linear-gradient" x1="0.798" y1="0.357" x2="0.216" y2="0.875" gradientUnits="objectBoundingBox">
      <stop offset="0" stop-color="#1faac4"/>
      <stop offset="1" stop-color="#54e4d2"/>
    </linearGradient>
  </defs>
  <g id="Group_147" data-name="Group 147" transform="translate(-79.392 -57)">
    <g id="shopping-basket-button_2_" data-name="shopping-basket-button (2)" transform="translate(79.392 41.395)">
      <g id="shopping-basket" transform="translate(0 34.425)">
        <path id="Path_681" data-name="Path 681" d="M55.151,58.256,40.172,35.787a4.2,4.2,0,0,0-2.724-1.362,3.1,3.1,0,0,0-2.724,1.362L19.746,58.256H3.4A3.216,3.216,0,0,0,0,61.66v1.021L8.511,94.342a6.94,6.94,0,0,0,6.468,5.107H59.237A6.56,6.56,0,0,0,65.7,94.342l8.511-31.661V61.66a3.216,3.216,0,0,0-3.4-3.4Zm-27.916,0L37.448,43.276,47.662,58.256ZM37.448,85.491a6.809,6.809,0,1,1,6.809-6.809A6.829,6.829,0,0,1,37.448,85.491Z" transform="translate(0 -34.425)" fill="url(#linear-gradient)"/>
      </g>
    </g>
    <text id="_20.5_" data-name="20.5 £" transform="translate(239 147)" fill="#fff" font-size="45" font-family="SegoeUI-Bold, Segoe UI" font-weight="700"><tspan x="-64.072" y="0">20.5 £</tspan></text>
    <text id="_01" data-name="01" transform="translate(200 104)" fill="#3ed3cd" font-size="44" font-family="SegoeUI, Segoe UI"><tspan x="-23.719" y="0">01</tspan></text>
  </g>
</svg>
